<?xml version="1.0" standalone="no"?>
<!DOCTYPE svg PUBLIC "-//W3C//DTD SVG 20010904//EN"
 "http://www.w3.org/TR/2001/REC-SVG-20010904/DTD/svg10.dtd">
<svg version="1.0" xmlns="http://www.w3.org/2000/svg"
 width="255.000000pt" height="340.000000pt" viewBox="0 0 255.000000 340.000000"
 preserveAspectRatio="xMidYMid meet">

<g transform="translate(0.000000,340.000000) scale(0.100000,-0.100000)"
fill="#000000" stroke="none">
<path d="M117 3376 c-20 -8 -44 -20 -53 -27 -46 -38 -44 24 -44 -1539 0 -1621
-5 -1504 62 -1552 l33 -23 605 -3 c587 -2 605 -3 620 -22 10 -13 40 -24 92
-34 76 -15 79 -16 139 -81 67 -71 100 -87 127 -62 9 9 40 57 67 107 l50 90 94
-2 94 -3 54 -98 c74 -131 80 -132 181 -35 74 72 79 75 137 82 74 9 105 28 105
62 0 14 11 39 24 55 14 16 28 48 31 72 3 23 5 691 3 1484 l-3 1442 -21 28
c-12 15 -36 37 -55 48 -33 20 -54 20 -1169 22 -932 2 -1142 0 -1173 -11z
m2305 -104 c12 -12 15 -2913 3 -2909 -5 2 -44 63 -86 137 l-77 133 25 53 c92
202 9 445 -185 543 -83 42 -173 57 -255 44 -278 -47 -435 -340 -315 -590 l24
-51 -86 -146 -85 -146 -624 -1 c-344 0 -628 4 -633 9 -4 4 -8 660 -8 1457 0
1244 2 1451 14 1464 13 14 124 16 1147 14 623 -2 1136 -6 1141 -11z m-377
-2124 c67 -35 122 -91 154 -158 35 -74 36 -181 3 -256 -29 -64 -102 -136 -167
-166 -76 -34 -191 -32 -263 5 -257 135 -234 493 38 591 66 24 171 16 235 -16z
m-376 -628 c20 -17 60 -38 89 -48 29 -10 55 -22 58 -25 5 -4 -131 -259 -153
-286 -1 -2 -27 19 -57 47 -38 36 -63 52 -83 53 -66 1 -66 5 19 152 44 75 82
137 85 137 2 0 21 -14 42 -30z m605 -106 c83 -145 84 -154 23 -154 -20 0 -44
-15 -83 -52 -30 -28 -56 -49 -59 -47 -2 3 -40 68 -84 144 -76 135 -78 140 -58
149 72 28 140 62 154 78 9 10 19 18 22 18 3 0 41 -61 85 -136z m-348 -51 c20
-27 17 -33 -16 -33 -33 0 -35 3 -20 31 13 24 19 24 36 2z"/>
<path d="M456 3156 c-20 -18 -26 -33 -26 -65 0 -34 -6 -47 -39 -80 -36 -36
-90 -61 -131 -61 -40 0 -40 -12 -40 -1149 1 -842 4 -1101 13 -1116 7 -11 25
-22 42 -24 47 -5 98 -30 127 -62 23 -25 33 -51 41 -118 1 -8 16 -22 32 -32 27
-16 66 -18 411 -18 l381 -1 27 25 c30 28 32 42 11 72 -15 22 -17 22 -385 23
-204 0 -370 -3 -370 -8 0 -4 -10 -9 -22 -9 -17 -2 -19 0 -8 7 12 8 12 12 0 36
-27 50 -109 132 -150 148 l-40 16 0 1064 0 1064 43 21 c52 25 108 82 137 139
l22 42 744 0 c716 0 744 -1 753 -19 6 -10 8 -21 5 -23 -2 -3 2 -11 11 -18 8
-7 15 -18 15 -24 0 -6 16 -25 36 -41 20 -17 46 -38 57 -48 11 -10 31 -20 44
-23 l23 -6 0 -799 0 -798 24 -28 c24 -27 26 -27 53 -13 15 8 30 26 34 40 4 14
7 386 8 827 1 762 0 804 -17 833 -10 16 -22 27 -25 23 -4 -3 -7 -1 -7 5 0 7
-15 12 -36 12 -43 0 -108 43 -123 80 -6 14 -11 41 -13 60 -1 19 -11 43 -22 53
-18 16 -71 17 -817 17 l-798 0 -25 -24z"/>
<path d="M843 2690 c-33 -14 -39 -47 -12 -76 l22 -24 422 0 c364 0 424 2 443
16 29 20 28 48 -4 73 -26 21 -37 21 -438 20 -226 0 -421 -4 -433 -9z"/>
<path d="M577 2422 c-22 -24 -21 -45 1 -65 17 -16 80 -17 703 -17 603 0 687 2
707 16 27 19 29 60 3 74 -13 6 -253 10 -709 10 -655 0 -690 -1 -705 -18z"/>
<path d="M755 2013 c-45 -11 -61 -57 -29 -84 19 -16 79 -15 99 1 21 17 19 54
-3 73 -19 17 -30 19 -67 10z"/>
<path d="M1000 2007 c-33 -17 -37 -44 -9 -73 l22 -24 377 0 c208 0 392 3 410
6 20 4 36 16 43 31 9 20 7 27 -11 46 -22 22 -25 22 -415 25 -303 1 -398 -1
-417 -11z"/>
<path d="M733 1745 c-33 -23 -31 -72 3 -85 56 -22 104 0 104 47 0 41 -69 65
-107 38z"/>
<path d="M1000 1747 c-18 -9 -25 -21 -25 -42 0 -53 11 -55 441 -55 l391 0 21
23 c27 28 28 49 4 70 -17 15 -60 17 -413 17 -298 0 -400 -3 -419 -13z"/>
<path d="M733 1480 c-26 -10 -32 -57 -11 -78 15 -15 82 -16 109 -2 19 11 27
64 11 74 -19 11 -88 15 -109 6z"/>
<path d="M980 1476 c-18 -22 -8 -59 20 -73 35 -18 820 -19 838 -1 18 18 15 53
-6 71 -17 15 -61 17 -429 17 -346 0 -412 -2 -423 -14z"/>
<path d="M576 949 c-32 -25 -33 -53 -4 -73 19 -13 62 -16 264 -16 221 0 242 2
257 18 23 25 21 39 -8 67 l-24 25 -229 0 c-217 0 -231 -1 -256 -21z"/>
<path d="M1883 1050 c-13 -11 -23 -27 -23 -36 0 -16 59 -56 71 -48 13 8 67
-24 73 -43 3 -10 10 -36 15 -58 14 -53 50 -72 77 -41 23 27 27 74 8 103 -8 12
-14 28 -14 35 0 7 -15 25 -32 41 -71 62 -140 80 -175 47z"/>
</g>
</svg>
