<?xml version="1.0" standalone="no"?>
<!DOCTYPE svg PUBLIC "-//W3C//DTD SVG 20010904//EN"
 "http://www.w3.org/TR/2001/REC-SVG-20010904/DTD/svg10.dtd">
<svg version="1.0" xmlns="http://www.w3.org/2000/svg"
 width="331.000000pt" height="294.000000pt" viewBox="0 0 331.000000 294.000000"
 preserveAspectRatio="xMidYMid meet">

<g transform="translate(0.000000,294.000000) scale(0.100000,-0.100000)"
fill="#000000" stroke="none">
<path d="M283 2866 c-98 -31 -176 -98 -217 -185 -21 -46 -21 -48 -21 -1216 l0
-1170 24 -53 c30 -67 113 -143 189 -174 l57 -23 1290 -3 c902 -2 1309 0 1354
8 114 20 207 82 256 171 l30 54 3 1164 c2 1019 0 1171 -13 1217 -21 73 -95
152 -177 190 l-63 29 -1335 2 c-1084 1 -1343 -1 -1377 -11z m2453 -631 c43
-38 96 -86 118 -106 l39 -36 -270 -239 c-148 -131 -379 -336 -513 -454 -133
-118 -371 -329 -528 -468 -156 -138 -287 -252 -291 -252 -4 0 -157 133 -341
296 -184 163 -384 339 -443 391 -59 53 -106 97 -104 99 26 26 244 214 248 214
3 0 148 -126 322 -280 l317 -280 672 595 c370 328 678 594 684 593 7 -2 47
-34 90 -73z"/>
</g>
</svg>
