<?xml version="1.0" standalone="no"?>
<!DOCTYPE svg PUBLIC "-//W3C//DTD SVG 20010904//EN"
 "http://www.w3.org/TR/2001/REC-SVG-20010904/DTD/svg10.dtd">
<svg version="1.0" xmlns="http://www.w3.org/2000/svg"
 width="980.000000pt" height="982.000000pt" viewBox="0 0 980.000000 982.000000"
 preserveAspectRatio="xMidYMid meet">

<g transform="translate(0.000000,982.000000) scale(0.100000,-0.100000)"
fill="#000000" stroke="none">
<path d="M5570 9796 c-196 -44 -358 -134 -496 -277 -162 -168 -252 -371 -270
-609 l-6 -85 -132 0 c-72 0 -158 -7 -191 -14 -416 -92 -715 -417 -766 -833
-35 -293 80 -607 299 -809 172 -160 375 -244 612 -256 256 -12 502 77 683 247
196 183 299 396 314 645 l6 100 116 -4 c134 -4 221 9 340 51 45 16 84 28 86
26 1 -2 15 -32 30 -68 153 -352 493 -580 870 -582 66 -1 148 4 182 11 259 49
484 199 630 419 111 167 157 323 156 532 0 112 -5 152 -26 233 -74 278 -269
512 -529 632 -123 57 -208 76 -354 82 -150 6 -226 -4 -358 -48 -49 -16 -90
-28 -91 -27 -1 2 -20 42 -43 90 -45 98 -84 158 -155 240 -124 145 -325 262
-520 302 -91 19 -306 20 -387 2z m321 -526 c204 -63 334 -271 300 -477 -59
-349 -472 -492 -726 -252 -103 97 -139 190 -133 337 3 84 8 106 37 165 93 194
316 291 522 227z m1308 -569 c125 -39 218 -120 274 -239 30 -63 32 -74 32
-177 0 -103 -2 -114 -32 -177 -93 -197 -301 -296 -508 -243 -213 56 -354 271
-317 487 15 88 51 164 106 225 111 122 290 172 445 124z m-2392 -421 c194 -67
320 -278 284 -478 -33 -188 -182 -335 -366 -361 -189 -27 -370 70 -456 244
-33 67 -34 74 -34 185 0 109 2 119 32 183 96 201 328 299 540 227z"/>
<path d="M3235 7104 c-148 -36 -323 -158 -408 -287 -19 -28 -162 -324 -317
-657 -155 -333 -283 -606 -284 -607 -1 -1 -54 -16 -116 -32 -383 -99 -717
-263 -1040 -511 -124 -96 -385 -358 -481 -485 -306 -403 -496 -858 -566 -1355
-13 -92 -17 -189 -17 -370 1 -283 19 -430 83 -684 234 -914 910 -1650 1798
-1956 885 -305 1846 -154 2605 410 l98 73 -43 49 c-79 93 -222 287 -287 390
-84 134 -225 414 -279 553 -23 60 -44 112 -46 114 -3 2 -43 -33 -90 -77 -300
-284 -753 -442 -1158 -403 -214 20 -361 59 -543 145 -447 212 -748 598 -856
1099 -32 147 -32 446 0 590 108 490 402 873 827 1082 226 110 392 152 635 162
411 15 783 -122 1100 -406 l66 -58 38 111 c92 268 158 403 284 586 61 88 111
149 430 528 67 79 134 165 151 190 l30 47 2 585 1 585 -418 197 c-729 343
-787 370 -863 389 -89 23 -247 24 -336 3z m999 -963 c77 -37 147 -110 184
-189 23 -49 27 -70 27 -152 0 -83 -3 -102 -28 -155 -37 -79 -114 -156 -191
-192 -54 -25 -72 -28 -161 -28 -89 0 -106 3 -158 29 -74 36 -147 109 -184 183
-25 53 -28 68 -28 163 0 96 2 110 29 160 34 67 107 144 161 172 74 39 116 48
203 44 68 -3 95 -10 146 -35z"/>
<path d="M5907 7029 c-195 -48 -369 -184 -452 -354 -71 -145 -69 -114 -73
-890 l-3 -700 -93 -62 c-527 -354 -851 -914 -970 -1674 -76 -483 -53 -880 75
-1312 95 -317 288 -682 499 -942 340 -420 814 -746 1321 -910 511 -165 1084
-179 1594 -39 1067 293 1832 1207 1977 2364 19 151 16 555 -5 693 -87 566
-312 1035 -711 1481 -87 96 -257 252 -371 338 l-85 63 0 625 c-1 641 -8 830
-35 935 -40 155 -139 294 -247 348 -118 59 -74 57 -1258 56 -1036 0 -1089 -1
-1163 -20z m1334 -702 c62 -30 146 -112 177 -173 29 -57 46 -153 37 -219 -9
-73 -65 -183 -116 -230 -23 -21 -71 -51 -108 -69 -58 -27 -76 -31 -151 -30
-113 1 -180 27 -260 101 -84 77 -113 141 -118 257 -3 75 0 101 18 149 39 105
111 179 216 223 52 22 71 24 154 22 80 -3 105 -8 151 -31z m169 -1970 c570
-136 994 -536 1154 -1089 82 -283 73 -620 -24 -911 -171 -514 -604 -898 -1148
-1020 -83 -18 -129 -21 -312 -21 -186 -1 -228 2 -313 21 -413 94 -745 318
-973 658 -385 578 -337 1332 119 1866 194 227 491 411 782 484 145 37 225 44
420 41 159 -4 207 -8 295 -29z"/>
</g>
</svg>
