<?xml version="1.0" standalone="no"?>
<!DOCTYPE svg PUBLIC "-//W3C//DTD SVG 20010904//EN"
 "http://www.w3.org/TR/2001/REC-SVG-20010904/DTD/svg10.dtd">
<svg version="1.0" xmlns="http://www.w3.org/2000/svg"
 width="533.000000pt" height="573.000000pt" viewBox="0 0 533.000000 573.000000"
 preserveAspectRatio="xMidYMid meet">

<g transform="translate(0.000000,573.000000) scale(0.100000,-0.100000)"
fill="#000000" stroke="none">
<path d="M2393 5236 c-6 -10 -47 -15 -158 -19 -105 -4 -152 -10 -160 -19 -10
-13 -13 -14 -65 -16 -19 -1 -30 -7 -30 -17 0 -12 -14 -15 -70 -15 -52 0 -72
-4 -76 -14 -3 -8 -19 -18 -36 -21 -16 -4 -32 -13 -35 -21 -3 -10 -22 -14 -59
-14 -42 0 -58 -5 -71 -20 -10 -11 -23 -20 -30 -20 -7 0 -13 -7 -13 -15 0 -11
-12 -15 -49 -15 -40 0 -50 -3 -54 -20 -3 -11 -12 -20 -21 -20 -9 0 -16 -4 -16
-10 0 -5 -16 -12 -35 -16 -19 -3 -35 -12 -35 -19 0 -8 -13 -16 -29 -20 -16 -3
-32 -13 -35 -21 -3 -8 -12 -14 -21 -14 -8 0 -15 -7 -15 -15 0 -8 -9 -15 -20
-15 -11 0 -28 -9 -37 -20 -10 -11 -23 -20 -30 -20 -7 0 -13 -7 -13 -15 0 -8
-9 -15 -20 -15 -11 0 -20 -7 -20 -15 0 -8 -6 -15 -13 -15 -8 0 -22 -9 -32 -20
-10 -11 -26 -20 -37 -20 -11 0 -18 -7 -18 -20 0 -11 -7 -20 -15 -20 -8 0 -15
-7 -15 -15 0 -8 -7 -15 -15 -15 -8 0 -15 -7 -15 -16 0 -9 -9 -18 -21 -21 -15
-4 -17 -8 -8 -14 9 -5 5 -10 -14 -14 -15 -4 -27 -13 -27 -20 0 -8 -9 -17 -20
-20 -11 -3 -20 -13 -20 -21 0 -8 -7 -14 -15 -14 -8 0 -15 -4 -15 -10 0 -5 -8
-18 -17 -28 -36 -38 -53 -63 -53 -77 0 -8 -9 -15 -20 -15 -13 0 -20 -7 -20
-20 0 -11 -7 -20 -15 -20 -9 0 -15 -9 -15 -25 0 -14 -8 -29 -20 -35 -11 -6
-20 -20 -20 -30 0 -11 -6 -19 -13 -18 -7 2 -13 -10 -15 -29 -2 -20 -9 -33 -17
-33 -7 0 -16 -13 -20 -29 -3 -16 -13 -32 -21 -35 -8 -3 -14 -15 -14 -26 0 -11
-6 -20 -14 -20 -8 0 -15 -16 -19 -42 -3 -23 -13 -45 -21 -50 -9 -5 -16 -15
-16 -22 0 -8 -6 -16 -14 -19 -8 -3 -15 -29 -19 -68 -3 -34 -9 -65 -14 -68 -11
-7 -27 -42 -25 -53 1 -5 -5 -8 -13 -8 -11 0 -15 -17 -17 -72 -2 -51 -7 -72
-15 -71 -8 2 -15 -16 -19 -47 -4 -32 -11 -50 -20 -50 -11 0 -14 -31 -14 -160
0 -130 -3 -160 -14 -160 -11 0 -14 -24 -15 -109 -2 -113 5 -165 20 -155 5 3 9
-64 9 -155 0 -130 3 -161 14 -161 9 0 16 -18 20 -50 5 -34 11 -50 21 -50 12 0
15 -16 15 -76 0 -41 4 -73 8 -70 4 2 14 -10 22 -27 7 -18 18 -35 24 -39 5 -3
12 -34 14 -67 3 -43 8 -61 18 -61 8 0 14 -9 14 -20 0 -11 6 -20 14 -20 15 0
26 -30 26 -72 0 -17 5 -27 12 -25 7 1 14 -8 16 -20 2 -13 9 -23 17 -23 7 0 16
-16 19 -35 4 -21 13 -35 21 -35 10 0 15 -10 15 -30 0 -20 5 -30 15 -30 8 0 15
-8 15 -19 0 -10 9 -21 20 -24 11 -3 20 -9 19 -14 -4 -24 3 -43 16 -43 8 0 15
-9 15 -20 0 -12 7 -20 16 -20 9 0 18 -9 21 -20 3 -11 13 -20 22 -21 11 0 12
-2 3 -6 -9 -3 -7 -10 9 -24 12 -10 18 -19 13 -19 -5 0 -1 -5 9 -11 9 -5 17
-17 17 -24 0 -8 7 -15 15 -15 8 0 15 -6 15 -14 0 -7 9 -16 20 -19 11 -3 20
-12 20 -20 0 -8 9 -17 21 -20 12 -3 18 -10 14 -16 -3 -6 1 -11 10 -11 8 0 18
-7 21 -15 3 -8 14 -17 25 -20 11 -4 17 -11 14 -16 -4 -5 1 -9 9 -9 9 0 16 -9
16 -20 0 -11 7 -20 15 -20 7 0 18 -6 22 -13 4 -6 20 -18 36 -26 20 -11 24 -17
15 -23 -9 -5 -7 -8 7 -9 11 -1 24 -1 28 0 5 1 11 -8 14 -19 3 -11 14 -20 24
-20 11 0 19 -6 19 -14 0 -8 13 -17 30 -21 16 -4 30 -13 30 -21 0 -12 19 -18
58 -17 6 1 12 -5 12 -13 0 -8 6 -14 14 -14 7 0 16 -9 19 -20 4 -15 14 -20 36
-20 21 0 31 -5 31 -15 0 -8 9 -15 20 -15 11 0 20 -6 20 -14 0 -9 18 -16 50
-20 34 -5 50 -11 50 -21 0 -10 10 -15 29 -15 16 0 31 -6 34 -14 3 -8 28 -16
61 -20 33 -5 55 -12 53 -19 -2 -11 4 -13 46 -16 16 -1 18 -4 9 -10 -21 -13 10
-21 79 -21 43 0 61 -4 65 -15 4 -9 26 -17 54 -21 27 -4 51 -13 54 -20 4 -11
37 -14 156 -14 125 0 152 -3 156 -15 9 -22 259 -22 268 0 4 12 31 15 156 15
119 0 152 3 156 14 3 7 27 16 54 20 28 4 50 12 54 21 4 11 22 15 65 15 69 0
100 8 79 21 -9 6 -7 9 10 10 41 3 47 5 45 16 -2 7 20 14 52 18 30 4 60 13 66
21 6 8 22 14 35 14 15 0 24 6 24 15 0 8 9 16 20 16 11 1 25 3 30 4 6 1 19 3
30 4 11 0 20 8 20 16 0 8 9 15 20 15 11 0 20 7 20 15 0 10 10 15 31 15 21 0
32 6 36 17 5 19 63 53 88 53 8 0 15 9 15 20 0 14 7 20 24 20 13 0 26 7 30 15
3 8 15 15 26 15 13 0 20 7 20 20 0 13 7 20 20 20 11 0 20 7 20 15 0 8 7 15 15
15 8 0 15 7 15 15 0 8 14 17 35 21 25 4 35 11 35 25 0 11 5 19 10 19 6 0 30
20 53 45 24 25 49 45 55 45 7 0 12 7 12 16 0 9 9 18 21 21 15 4 17 8 8 14 -9
5 -5 10 14 14 17 5 27 14 27 26 0 11 9 27 20 36 11 10 20 23 20 30 0 7 7 13
15 13 8 0 15 9 15 20 0 13 7 20 20 20 13 0 20 7 20 20 0 11 7 20 15 20 10 0
15 10 15 30 0 23 4 30 20 30 13 0 20 7 20 20 0 11 6 20 13 20 9 0 9 2 -1 9
-11 7 -11 9 2 14 9 4 16 13 16 22 0 8 7 15 15 15 8 0 17 14 21 35 3 19 12 35
19 35 8 0 15 10 17 23 2 12 8 21 15 20 6 -1 13 20 17 47 5 34 11 50 21 50 8 0
15 9 15 20 0 11 6 20 14 20 10 0 15 18 18 61 2 33 9 64 14 67 6 4 17 22 25 40
8 17 17 32 21 32 5 0 8 32 8 70 0 55 3 70 15 70 10 0 16 16 21 50 4 32 11 50
20 50 11 0 14 31 14 161 0 98 4 158 9 154 16 -9 23 56 19 161 -2 66 -7 99 -15
102 -10 3 -13 44 -13 163 0 130 -2 157 -14 153 -10 -4 -15 8 -19 42 -3 28 -11
51 -21 56 -12 7 -16 25 -16 78 0 56 -3 70 -15 70 -8 0 -14 3 -13 8 2 10 -14
46 -24 53 -5 3 -12 31 -15 62 -3 32 -10 55 -17 54 -6 -1 -12 9 -14 23 -2 14
-10 30 -19 37 -8 7 -18 32 -20 57 -4 32 -9 43 -19 39 -9 -3 -14 2 -14 16 0 12
-6 24 -14 27 -8 3 -18 19 -21 35 -4 16 -13 29 -21 29 -8 0 -15 9 -15 20 -2 33
-4 38 -13 47 -5 5 -6 2 -1 -6 5 -9 4 -12 -3 -7 -7 4 -12 16 -12 28 0 11 -8 22
-20 25 -13 3 -20 14 -20 29 0 13 -5 24 -10 24 -6 0 -15 11 -20 25 -5 14 -16
25 -25 25 -8 0 -15 7 -15 15 0 14 -17 39 -52 77 -10 10 -18 23 -18 28 0 6 -7
10 -15 10 -8 0 -15 6 -15 14 0 8 -9 18 -20 21 -11 3 -20 12 -20 20 0 7 -12 16
-27 20 -19 4 -23 9 -14 14 9 6 7 10 -8 14 -12 3 -21 12 -21 21 0 9 -7 16 -15
16 -8 0 -15 7 -15 15 0 8 -7 15 -15 15 -8 0 -15 9 -15 20 0 13 -7 20 -18 20
-10 0 -29 11 -42 25 -12 13 -27 22 -31 19 -5 -3 -9 2 -9 10 0 9 -9 16 -20 16
-11 0 -20 7 -20 15 0 8 -6 15 -13 15 -7 0 -23 9 -35 20 -12 11 -28 20 -37 20
-8 0 -15 7 -15 15 0 8 -9 15 -20 15 -11 0 -28 9 -37 20 -10 11 -23 20 -30 20
-7 0 -13 6 -13 14 0 8 -15 17 -35 20 -19 4 -35 11 -35 16 0 6 -7 10 -16 10 -9
0 -18 9 -21 20 -4 17 -14 20 -54 20 -37 0 -49 4 -49 15 0 8 -6 15 -13 15 -7 0
-20 9 -30 20 -13 15 -29 20 -71 20 -37 0 -56 4 -59 14 -3 8 -19 17 -35 21 -17
3 -33 13 -36 21 -4 10 -24 14 -77 14 -59 0 -70 3 -65 15 4 11 -3 15 -29 17
-57 2 -60 2 -70 16 -8 9 -55 15 -160 19 -111 4 -152 9 -158 19 -6 11 -37 14
-127 14 -90 0 -121 -3 -127 -14z m357 -551 c8 -9 30 -15 58 -15 29 0 52 -6 65
-17 13 -13 41 -19 93 -21 55 -3 74 -8 74 -18 0 -12 26 -19 53 -15 4 0 7 -6 7
-14 0 -9 9 -15 24 -15 45 0 86 -13 86 -26 0 -12 26 -19 53 -15 4 0 7 -5 7 -13
0 -8 15 -17 34 -20 19 -4 37 -13 40 -21 3 -8 12 -15 21 -15 8 0 15 -7 15 -15
0 -10 10 -15 31 -15 22 0 32 -5 36 -20 3 -11 14 -20 24 -20 10 0 21 -5 24 -11
4 -5 18 -14 31 -19 13 -5 24 -16 24 -25 0 -8 9 -15 20 -15 11 0 20 -7 20 -15
0 -8 7 -15 15 -15 8 0 15 -6 15 -14 0 -8 11 -17 25 -20 14 -4 23 -10 20 -15
-2 -5 2 -11 10 -15 8 -3 15 -12 15 -21 0 -8 6 -15 13 -15 15 0 57 -44 57 -59
0 -6 7 -11 15 -11 8 0 15 -7 15 -16 0 -9 9 -18 20 -21 11 -3 20 -12 20 -19 0
-8 7 -14 15 -14 8 0 15 -8 15 -18 0 -11 9 -27 20 -37 11 -10 20 -23 20 -28 0
-5 7 -15 15 -21 8 -6 16 -23 17 -38 1 -15 6 -24 10 -22 4 3 12 -6 18 -20 5
-14 16 -26 25 -26 11 0 15 -10 15 -35 0 -24 5 -35 15 -35 9 0 15 -9 15 -25 0
-14 8 -29 20 -35 16 -8 20 -21 20 -60 0 -38 4 -50 15 -50 10 0 15 -10 15 -30
0 -17 7 -33 17 -39 13 -7 18 -27 21 -82 3 -46 10 -78 18 -84 8 -6 14 -35 16
-75 2 -46 7 -64 16 -62 9 1 12 -45 12 -208 0 -180 -2 -210 -15 -210 -12 0 -15
-14 -15 -66 0 -45 -5 -70 -15 -80 -9 -9 -15 -34 -15 -58 0 -63 -11 -106 -26
-106 -9 0 -14 -11 -14 -30 0 -18 -6 -33 -15 -36 -10 -4 -15 -20 -15 -51 0 -36
-4 -46 -20 -50 -14 -4 -20 -14 -20 -34 0 -19 -5 -29 -15 -29 -11 0 -15 -11
-15 -36 0 -27 -5 -37 -20 -41 -11 -3 -20 -14 -20 -24 0 -11 -7 -19 -15 -19
-10 0 -15 -10 -15 -30 0 -20 -5 -30 -15 -30 -8 0 -15 -7 -15 -15 0 -8 -9 -24
-20 -35 -11 -11 -20 -27 -20 -35 0 -8 -6 -15 -14 -15 -7 0 -16 -9 -19 -20 -3
-11 -13 -20 -22 -20 -9 0 -13 -5 -10 -11 4 -6 -2 -13 -13 -16 -12 -3 -22 -15
-24 -27 -2 -11 -9 -20 -16 -18 -6 1 -12 -5 -12 -13 0 -8 -9 -15 -20 -15 -13 0
-20 -7 -20 -20 0 -11 -7 -20 -15 -20 -8 0 -15 -7 -15 -15 0 -8 -9 -15 -20 -15
-13 0 -20 -7 -20 -20 0 -11 -6 -20 -14 -20 -8 0 -16 -7 -20 -15 -3 -8 -12 -15
-21 -15 -8 0 -15 -6 -15 -14 0 -8 -14 -18 -31 -21 -21 -5 -27 -10 -19 -15 8
-5 2 -10 -19 -15 -17 -3 -31 -12 -31 -20 0 -7 -15 -16 -34 -19 -19 -4 -37 -13
-40 -21 -3 -8 -12 -15 -21 -15 -8 0 -15 -7 -15 -15 0 -10 -10 -15 -30 -15 -16
0 -33 -7 -38 -16 -5 -9 -21 -17 -35 -17 -16 1 -27 -6 -30 -18 -4 -15 -15 -19
-51 -19 -34 0 -46 -4 -46 -15 0 -13 -31 -21 -62 -16 -5 0 -8 -5 -8 -13 0 -16
-43 -26 -116 -26 -41 0 -54 -4 -54 -15 0 -11 -14 -15 -57 -16 -32 -1 -61 -1
-65 -1 -3 1 -12 -5 -18 -13 -18 -22 -402 -22 -453 0 -20 8 -52 15 -71 15 -21
0 -36 6 -40 15 -4 11 -20 15 -54 15 -69 0 -112 10 -112 26 0 8 -3 13 -7 13
-32 -5 -63 3 -63 16 0 11 -12 15 -46 15 -36 0 -47 4 -51 19 -3 12 -14 19 -30
19 -14 0 -30 7 -35 16 -5 9 -22 16 -38 16 -20 0 -30 5 -30 15 0 8 -5 15 -11
15 -6 0 -22 9 -36 20 -14 11 -34 20 -44 20 -11 0 -19 7 -19 15 0 8 -7 15 -15
15 -9 0 -18 6 -21 14 -3 8 -19 18 -35 21 -16 4 -29 13 -29 21 0 8 -7 14 -15
14 -9 0 -18 7 -21 15 -4 8 -12 15 -20 15 -8 0 -14 9 -14 20 0 13 -7 20 -20 20
-11 0 -20 7 -20 15 0 8 -7 15 -15 15 -8 0 -15 9 -15 20 0 13 -7 20 -20 20 -11
0 -20 7 -20 15 0 8 -7 15 -15 15 -8 0 -15 9 -15 20 0 11 -7 20 -15 20 -8 0
-15 7 -15 15 0 8 -7 15 -16 15 -9 0 -18 9 -21 20 -3 11 -12 20 -19 20 -8 0
-14 7 -14 15 0 8 -9 24 -20 35 -11 11 -20 27 -20 35 0 8 -7 15 -15 15 -10 0
-15 10 -15 30 0 20 -5 30 -15 30 -8 0 -15 8 -15 19 0 10 -9 21 -20 24 -15 4
-20 14 -20 41 0 25 -4 36 -15 36 -10 0 -15 10 -15 29 0 20 -6 30 -20 34 -16 4
-20 14 -20 50 0 31 -5 47 -15 51 -9 3 -15 18 -15 36 0 19 -5 30 -14 30 -15 0
-24 41 -28 123 -1 31 -6 47 -15 47 -9 0 -13 15 -13 49 0 60 -9 89 -21 69 -5
-7 -9 92 -9 227 0 135 4 234 9 227 11 -18 21 18 21 81 0 33 4 47 14 47 10 0
15 21 18 76 4 57 9 79 22 86 9 5 16 22 16 38 0 20 5 30 15 30 11 0 15 12 15
51 0 42 3 52 20 56 14 4 20 14 20 34 0 19 5 29 15 29 10 0 15 10 15 34 0 25 5
35 20 39 12 3 20 14 20 27 0 14 5 20 13 17 8 -3 14 5 15 22 1 14 9 31 17 37 8
6 15 16 15 21 0 5 9 18 20 28 11 10 20 26 20 37 0 10 7 18 15 18 8 0 15 7 15
15 0 8 7 15 16 15 9 0 18 9 21 20 3 11 12 20 19 20 8 0 14 6 14 13 0 15 44 57
59 57 6 0 11 9 11 20 0 11 5 20 11 20 5 0 8 4 5 9 -4 5 7 12 24 16 16 4 30 13
30 21 0 8 7 14 15 14 8 0 15 7 15 15 0 8 9 15 20 15 13 0 20 7 20 20 0 13 7
20 20 20 11 0 20 7 20 15 0 13 25 21 53 16 4 0 7 8 7 19 0 18 21 26 53 21 4
-1 10 6 13 14 4 8 13 15 20 15 8 0 17 7 20 15 3 8 21 17 40 21 19 3 34 12 34
20 0 9 11 14 30 14 19 0 30 5 30 14 0 13 41 26 86 26 15 0 24 6 24 15 0 8 3
14 8 14 27 -5 52 3 52 16 0 12 14 15 69 15 53 0 74 4 94 20 17 13 40 20 70 20
27 0 49 6 57 15 10 12 49 15 230 15 181 0 220 -3 230 -15z"/>
<path d="M2403 4113 c-13 -2 -23 -11 -23 -19 0 -8 -7 -14 -15 -14 -8 0 -15 -6
-15 -14 0 -7 -9 -16 -20 -19 -11 -3 -20 -12 -20 -21 0 -9 -7 -16 -15 -16 -10
0 -15 -10 -15 -30 0 -17 -6 -33 -14 -36 -20 -8 -22 -159 -2 -171 16 -9 16 -10
16 -48 0 -16 6 -25 15 -25 8 0 15 -7 15 -15 0 -8 7 -15 15 -15 8 0 15 -7 15
-16 0 -9 9 -18 20 -21 11 -3 20 -12 20 -19 0 -11 27 -14 140 -14 113 0 140 3
140 14 0 7 9 16 20 19 11 3 20 12 20 21 0 9 7 16 15 16 8 0 15 7 15 15 0 8 7
15 15 15 10 0 15 10 15 31 0 17 7 37 15 46 21 20 19 159 -1 167 -8 3 -14 19
-14 36 0 19 -5 30 -14 30 -7 0 -16 9 -19 20 -3 11 -12 20 -21 20 -9 0 -16 6
-16 14 0 7 -9 16 -21 19 -12 3 -18 10 -15 15 3 5 -8 12 -25 16 -34 7 -190 6
-226 -1z"/>
<path d="M2450 3275 c0 -10 -11 -15 -35 -15 -19 0 -35 -5 -35 -11 0 -5 -5 -7
-10 -4 -6 3 -13 -1 -16 -9 -3 -9 -12 -16 -20 -16 -8 0 -14 -6 -14 -13 0 -7 -7
-22 -16 -33 -8 -10 -12 -13 -8 -5 5 9 3 12 -4 7 -7 -4 -12 -25 -12 -47 0 -28
-4 -39 -15 -39 -14 0 -15 -59 -15 -495 1 -426 3 -497 15 -502 9 -3 15 -19 15
-39 0 -24 5 -34 15 -34 8 0 15 -7 15 -15 0 -8 9 -15 20 -15 13 0 20 -7 20 -20
0 -13 7 -20 20 -20 11 0 20 -7 20 -15 0 -13 21 -15 130 -15 109 0 130 2 130
15 0 8 9 15 20 15 13 0 20 7 20 20 0 13 7 20 20 20 11 0 20 7 20 15 0 8 7 15
15 15 10 0 15 10 15 34 0 20 6 36 15 39 12 5 14 76 15 502 0 436 -1 495 -15
495 -11 0 -15 12 -15 48 0 34 -3 43 -10 32 -8 -12 -12 -9 -22 18 -7 17 -17 32
-23 32 -6 0 -18 9 -28 20 -11 13 -29 20 -52 20 -24 0 -35 5 -35 15 0 12 -14
15 -70 15 -56 0 -70 -3 -70 -15z"/>
</g>
</svg>
