<?xml version="1.0" standalone="no"?>
<!DOCTYPE svg PUBLIC "-//W3C//DTD SVG 20010904//EN"
 "http://www.w3.org/TR/2001/REC-SVG-20010904/DTD/svg10.dtd">
<svg version="1.0" xmlns="http://www.w3.org/2000/svg"
 width="689.000000pt" height="202.000000pt" viewBox="0 0 689.000000 202.000000"
 preserveAspectRatio="xMidYMid meet">

<g transform="translate(0.000000,202.000000) scale(0.100000,-0.100000)"
fill="#000000" stroke="none">
<path d="M300 1610 l0 -130 120 0 120 0 0 130 0 130 -120 0 -120 0 0 -130z"/>
<path d="M710 1641 c0 -49 -3 -103 -6 -120 l-6 -31 486 0 486 0 0 120 0 120
-480 0 -480 0 0 -89z"/>
<path d="M5080 1097 c0 -294 2 -346 16 -365 26 -37 67 -52 144 -52 l70 0 0 60
0 59 -57 3 -58 3 -3 178 -2 177 60 0 60 0 0 55 0 54 -57 3 -58 3 -3 83 -3 82
-54 0 -55 0 0 -343z"/>
<path d="M303 1143 c4 -207 15 -263 70 -372 59 -119 237 -282 290 -265 12 4
68 29 125 56 l103 48 -28 23 c-15 12 -48 36 -71 52 -58 39 -159 149 -187 205
-41 81 -65 203 -65 327 l0 113 -121 0 -121 0 5 -187z"/>
<path d="M1003 1323 c-10 -3 -13 -38 -13 -124 l0 -119 220 0 c175 0 220 -3
220 -13 0 -7 -7 -38 -16 -68 -57 -192 -192 -324 -467 -458 -78 -37 -152 -72
-164 -75 -13 -4 -23 -11 -23 -15 0 -4 53 -32 117 -63 81 -39 121 -53 132 -48
9 5 72 35 141 68 290 136 422 260 487 456 25 76 27 93 27 271 l1 190 -325 2
c-179 1 -331 -1 -337 -4z"/>
<path d="M1760 1020 c0 -208 3 -256 16 -281 26 -52 61 -59 279 -59 306 0 295
-13 295 344 l0 246 -60 0 -60 0 0 -235 0 -235 -175 0 -175 0 -2 233 -3 232
-57 3 -58 3 0 -251z"/>
<path d="M2440 1210 l0 -60 235 0 236 0 -3 -57 -3 -58 -210 -6 c-115 -3 -211
-6 -213 -7 -1 -1 -11 -17 -22 -34 -26 -43 -29 -202 -4 -249 27 -54 57 -59 324
-59 l240 0 0 260 0 260 -29 32 -29 33 -261 3 -261 3 0 -61z m468 -352 l3 -58
-181 0 -180 0 0 53 c0 30 3 57 7 61 4 3 84 5 177 4 l171 -3 3 -57z"/>
<path d="M3130 1266 c0 -4 0 -135 -1 -293 l0 -288 56 -3 55 -3 0 236 0 235
155 0 155 0 0 -55 0 -55 55 0 55 0 0 84 c0 75 -3 88 -24 113 l-24 28 -241 3
c-133 2 -241 1 -241 -2z"/>
<path d="M3732 1213 l3 -58 233 0 232 0 0 -62 0 -63 -200 0 -200 0 -32 -29
c-32 -29 -33 -31 -36 -124 -3 -74 0 -103 13 -130 29 -63 51 -67 329 -67 l246
0 0 253 c0 234 -1 254 -20 285 -11 18 -32 37 -46 42 -14 6 -137 10 -275 10
l-250 0 3 -57z m468 -353 l0 -60 -175 0 -175 0 0 60 0 60 175 0 175 0 0 -60z"/>
<path d="M4420 975 l0 -296 58 3 c42 2 57 7 58 18 1 8 2 113 3 233 l1 217 160
0 160 0 2 -232 3 -233 58 -3 57 -3 0 251 c0 283 -5 309 -60 329 -21 7 -118 11
-266 11 l-234 0 0 -295z"/>
<path d="M5428 1254 c-15 -8 -32 -23 -38 -34 -6 -11 -10 -109 -10 -242 0 -190
2 -227 16 -247 32 -45 67 -51 309 -51 l225 0 0 60 0 60 -220 0 -220 0 0 60 0
60 193 0 c214 0 232 4 259 60 22 44 24 175 4 225 -25 60 -49 65 -283 65 -164
-1 -214 -4 -235 -16z m410 -156 l-3 -63 -140 -3 c-77 -2 -155 0 -172 3 -32 6
-33 7 -33 59 0 29 3 56 7 59 3 4 82 7 175 7 l169 0 -3 -62z"/>
<path d="M6078 1241 l-33 -29 -3 -221 c-4 -323 -17 -311 323 -311 l225 0 0 60
0 60 -213 0 c-118 0 -216 2 -218 4 -2 2 -2 29 -1 60 l4 55 200 3 200 3 29 33
c28 31 29 35 29 137 0 102 -1 106 -29 137 l-29 33 -225 3 -226 3 -33 -30z
m427 -146 l0 -60 -169 -3 c-97 -1 -172 1 -175 7 -3 5 -4 34 -3 65 l4 56 171
-2 172 -3 0 -60z"/>
</g>
</svg>
