<?xml version="1.0" standalone="no"?>
<!DOCTYPE svg PUBLIC "-//W3C//DTD SVG 20010904//EN"
 "http://www.w3.org/TR/2001/REC-SVG-20010904/DTD/svg10.dtd">
<svg version="1.0" xmlns="http://www.w3.org/2000/svg"
 width="476.000000pt" height="444.000000pt" viewBox="0 0 476.000000 444.000000"
 preserveAspectRatio="xMidYMid meet">

<g transform="translate(0.000000,444.000000) scale(0.100000,-0.100000)"
fill="#000000" stroke="none">
<path d="M2723 3938 c1 -8 -12 -14 -35 -16 -21 -2 -38 -7 -38 -12 0 -5 -16
-12 -35 -16 -19 -3 -35 -9 -35 -13 0 -4 -16 -13 -35 -21 -19 -8 -35 -19 -35
-25 0 -6 -9 -17 -20 -25 -11 -8 -20 -20 -20 -26 0 -6 -7 -17 -15 -24 -8 -7
-15 -21 -15 -31 0 -11 -4 -19 -10 -19 -6 0 -10 -51 -10 -134 0 -126 -1 -135
-20 -141 -11 -3 -20 -11 -20 -16 0 -5 -7 -9 -15 -9 -12 0 -15 -16 -15 -85 0
-50 4 -85 10 -85 6 0 10 -6 10 -13 0 -16 36 -47 55 -47 9 0 15 -9 15 -22 0
-13 7 -36 15 -52 8 -15 15 -37 15 -48 0 -10 5 -16 10 -13 6 3 10 -3 10 -14 0
-12 5 -21 10 -21 6 0 10 -9 10 -20 0 -11 7 -20 16 -20 8 0 13 -4 10 -9 -3 -5
1 -14 9 -21 8 -7 15 -19 15 -27 0 -8 5 -11 10 -8 6 3 10 -1 10 -9 0 -8 8 -17
18 -20 9 -3 31 -19 49 -36 21 -20 42 -30 62 -30 17 0 42 -5 56 -12 21 -9 31
-9 46 0 10 7 35 12 54 12 19 0 35 5 35 10 0 6 5 10 10 10 6 0 18 8 28 18 10 9
30 26 45 37 15 11 27 25 27 32 0 7 11 23 25 37 14 14 25 32 25 40 0 8 3 16 8
18 12 5 42 65 42 83 0 9 5 13 10 10 6 -4 10 10 10 34 0 35 3 41 21 41 44 0 69
52 69 146 0 77 -11 104 -43 104 -11 0 -15 28 -20 137 -3 84 -10 139 -16 141
-6 2 -11 12 -11 23 0 11 -5 25 -10 32 -44 52 -60 73 -60 80 0 4 -9 7 -20 7
-11 0 -20 5 -20 10 0 6 -7 10 -15 10 -8 0 -15 4 -15 10 0 5 -12 13 -27 16 -16
4 -33 10 -38 15 -6 4 -28 9 -50 11 -25 2 -39 8 -37 16 1 8 -15 12 -58 12 -43
0 -59 -4 -57 -12z"/>
<path d="M1703 3533 c-18 -9 -33 -20 -33 -25 0 -4 -7 -8 -15 -8 -8 0 -15 -7
-15 -16 0 -9 -16 -31 -35 -50 -19 -18 -35 -40 -35 -48 0 -9 -4 -16 -10 -16 -6
0 -10 -39 -10 -98 0 -96 -1 -99 -25 -110 -21 -10 -25 -19 -25 -53 0 -50 27
-110 52 -117 10 -2 18 -12 18 -21 0 -10 7 -26 15 -37 8 -10 15 -27 15 -36 0
-10 5 -18 10 -18 6 0 10 -12 10 -26 0 -14 4 -23 10 -19 6 3 10 1 10 -4 0 -19
96 -108 130 -119 62 -22 125 -10 163 32 9 10 17 16 17 12 0 -4 15 10 33 31 17
21 35 40 40 41 4 2 7 15 7 28 0 13 5 24 10 24 6 0 10 9 10 20 0 11 4 20 9 20
5 0 12 16 15 35 5 26 12 35 26 35 11 0 20 7 20 15 0 8 4 15 9 15 5 0 11 18 15
39 3 22 9 46 12 55 3 9 -6 27 -25 45 -30 29 -31 34 -31 115 0 70 -4 94 -27
144 -23 51 -36 65 -75 86 -27 15 -48 23 -48 20 0 -4 -11 1 -25 10 -33 22 -177
21 -222 -1z"/>
<path d="M3666 3535 c-8 -8 -19 -15 -25 -15 -6 0 -11 -4 -11 -10 0 -5 -18 -10
-40 -10 -22 0 -40 -4 -40 -10 0 -5 -5 -10 -10 -10 -11 0 -31 -15 -53 -38 -31
-33 -37 -41 -37 -51 0 -6 -4 -11 -10 -11 -5 0 -10 -9 -10 -20 0 -11 -4 -20
-10 -20 -5 0 -10 -10 -10 -22 -1 -13 -7 -34 -15 -48 -10 -18 -14 -60 -14 -150
0 -90 4 -132 14 -150 18 -32 19 -130 1 -155 -15 -21 -2 -55 21 -55 7 0 13 -4
13 -10 0 -5 9 -10 20 -10 11 0 28 -4 38 -9 9 -5 45 -15 80 -22 34 -6 65 -15
67 -20 3 -4 0 -20 -5 -35 -9 -22 -7 -33 12 -60 13 -19 26 -34 31 -34 4 0 7 -7
7 -15 0 -8 3 -15 8 -15 9 0 42 -57 42 -74 0 -18 24 -66 33 -66 4 0 7 3 7 8 0
6 16 27 60 79 5 7 10 17 10 23 0 5 5 10 10 10 6 0 10 9 10 19 0 11 5 23 10 26
13 8 13 58 -1 72 -6 6 -9 23 -7 39 3 27 8 30 70 44 36 8 70 19 74 23 4 4 16 7
26 7 10 0 18 5 18 10 0 6 9 10 20 10 11 0 20 7 20 15 0 8 5 15 12 15 9 0 9 3
0 12 -7 7 -12 22 -12 35 0 13 -4 23 -10 23 -5 0 -10 14 -10 30 0 17 5 30 10
30 6 0 10 19 10 43 0 24 5 48 12 55 15 15 15 229 -1 245 -6 6 -11 21 -11 34 0
13 -4 23 -10 23 -5 0 -10 9 -10 20 0 11 -4 20 -10 20 -5 0 -10 5 -10 10 0 20
-76 100 -113 119 -15 8 -27 18 -27 22 0 5 -16 11 -35 15 -19 3 -35 10 -35 15
0 16 -157 11 -174 -6z"/>
<path d="M2465 2720 c-3 -5 -15 -10 -26 -10 -10 0 -19 -4 -19 -10 0 -5 -13
-10 -30 -10 -16 0 -30 -4 -30 -10 0 -5 -10 -10 -22 -10 -13 0 -32 -7 -42 -15
-11 -8 -28 -15 -38 -15 -10 0 -18 -4 -18 -10 0 -5 -11 -10 -25 -10 -14 0 -25
-4 -25 -10 0 -5 -13 -10 -30 -10 -16 0 -30 -4 -30 -9 0 -5 -11 -12 -25 -15
-14 -4 -25 -11 -25 -16 0 -6 -9 -10 -20 -10 -22 0 -100 -75 -100 -96 0 -8 -4
-14 -9 -14 -18 0 -29 -191 -16 -274 6 -38 17 -59 46 -88 20 -21 45 -38 53 -38
9 0 16 -7 16 -15 0 -13 88 -15 735 -15 647 0 735 2 735 15 0 8 7 15 16 15 9 0
33 17 53 38 51 52 65 128 49 264 -6 54 -15 98 -20 98 -4 0 -8 7 -8 16 0 20
-74 94 -95 94 -8 0 -15 3 -15 8 0 4 -21 15 -48 25 -26 11 -56 22 -67 27 -53
20 -143 58 -167 71 -10 5 -26 9 -36 9 -10 0 -22 4 -28 9 -5 5 -23 12 -41 16
-38 8 -53 -13 -53 -74 0 -23 -4 -41 -10 -41 -5 0 -10 -16 -10 -35 0 -19 -4
-35 -10 -35 -5 0 -10 -12 -10 -27 0 -16 -7 -37 -15 -47 -8 -11 -15 -30 -15
-43 0 -13 -4 -23 -10 -23 -5 0 -10 -11 -10 -25 0 -14 -5 -35 -12 -48 -25 -49
-30 -60 -33 -79 -3 -11 -12 -26 -22 -33 -17 -13 -18 -7 -24 83 -3 53 -12 130
-19 169 -12 67 -12 76 6 108 10 19 22 35 26 35 14 0 9 61 -6 76 -20 20 -182
20 -202 0 -19 -19 -18 -51 2 -70 8 -9 12 -16 9 -16 -4 0 0 -12 10 -26 13 -20
15 -38 11 -73 -4 -25 -9 -98 -12 -161 -3 -63 -9 -119 -13 -123 -15 -16 -41 5
-41 34 0 16 -4 29 -8 29 -11 0 -42 72 -42 98 0 12 -4 22 -10 22 -5 0 -10 7
-10 16 0 9 -11 48 -25 86 -14 38 -25 78 -25 89 0 10 -4 19 -10 19 -5 0 -10 23
-10 51 0 31 -4 48 -10 44 -5 -3 -10 1 -10 9 0 19 -17 30 -25 16z"/>
<path d="M1590 2631 c0 -6 -11 -11 -25 -11 -14 0 -25 -4 -25 -10 0 -5 -13 -10
-30 -10 -16 0 -30 -3 -30 -7 0 -11 -58 -43 -76 -43 -8 0 -14 -4 -14 -10 0 -5
-7 -10 -15 -10 -23 0 -92 -75 -100 -109 -3 -17 -11 -31 -16 -31 -5 0 -9 -40
-9 -90 0 -53 4 -90 10 -90 6 0 10 -6 10 -13 0 -18 35 -58 52 -61 7 -1 18 -5
24 -8 9 -6 281 -11 447 -8 l27 0 0 138 c0 104 4 148 17 185 9 26 21 47 25 47
4 0 8 9 8 20 0 11 5 20 11 20 6 0 9 14 7 33 -3 31 -4 32 -54 35 -62 4 -83 -12
-76 -57 2 -17 8 -31 13 -31 6 0 8 -47 7 -107 -3 -103 -4 -108 -25 -111 -19 -3
-23 1 -23 22 0 14 -4 26 -10 26 -5 0 -10 11 -10 24 0 13 -3 26 -7 28 -12 5
-43 102 -43 132 0 14 -4 26 -9 26 -6 0 -11 19 -13 43 -2 35 -7 43 -25 45 -13
2 -23 -1 -23 -7z"/>
<path d="M3990 2592 c0 -4 6 -16 13 -27 13 -20 37 -93 37 -114 0 -6 -9 -11
-20 -11 -12 0 -20 7 -20 16 0 39 -58 60 -67 24 -3 -11 -9 -20 -14 -20 -5 0 -9
-9 -9 -20 0 -11 -4 -20 -10 -20 -5 0 -10 -7 -10 -15 0 -8 -4 -15 -10 -15 -5 0
-12 -11 -16 -25 -3 -14 -10 -25 -14 -25 -4 0 -13 -13 -20 -30 -7 -16 -16 -30
-21 -30 -5 0 -9 -7 -9 -15 0 -8 -5 -15 -11 -15 -22 0 -38 -35 -39 -82 l0 -48
234 0 c146 0 237 4 241 10 3 6 15 10 26 10 10 0 19 5 19 10 0 6 7 10 15 10 9
0 15 9 15 25 0 16 6 25 15 25 12 0 15 16 15 85 0 69 -3 85 -15 85 -9 0 -15 9
-15 25 0 26 -7 38 -47 78 -34 34 -51 47 -63 47 -6 0 -18 4 -28 9 -9 5 -28 13
-42 18 -14 6 -42 18 -63 27 -41 17 -67 21 -67 8z"/>
</g>
</svg>
