<?xml version="1.0" standalone="no"?>
<!DOCTYPE svg PUBLIC "-//W3C//DTD SVG 20010904//EN"
 "http://www.w3.org/TR/2001/REC-SVG-20010904/DTD/svg10.dtd">
<svg version="1.0" xmlns="http://www.w3.org/2000/svg"
 width="514.000000pt" height="511.000000pt" viewBox="0 0 514.000000 511.000000"
 preserveAspectRatio="xMidYMid meet">

<g transform="translate(0.000000,511.000000) scale(0.100000,-0.100000)"
fill="#000000" stroke="none">
<path d="M1487 4913 c-5 -4 -189 -7 -410 -5 -453 4 -452 4 -563 -68 -124 -81
-193 -180 -235 -334 -18 -67 -19 -141 -19 -1920 0 -1970 -2 -1886 46 -1977 35
-68 148 -197 189 -216 17 -8 44 -23 61 -33 16 -11 62 -24 101 -30 79 -11 3714
-15 3773 -4 19 3 67 18 107 31 117 41 255 181 298 302 13 38 15 261 15 1905 0
1281 -3 1887 -10 1941 -6 44 -20 98 -31 120 -28 58 -156 188 -214 217 -120 60
-26 56 -1530 62 -759 4 -1423 9 -1475 12 -52 3 -99 2 -103 -3z m1267 -769 c33
-8 103 -36 154 -61 198 -97 355 -295 413 -523 18 -69 18 -297 0 -360 -82 -295
-272 -494 -551 -581 -107 -33 -301 -34 -413 -1 -137 39 -239 100 -344 203
-183 181 -268 457 -217 707 36 175 112 311 244 435 85 80 200 146 314 178 82
24 312 26 400 3z m97 -2039 c57 -8 120 -19 139 -25 19 -6 71 -14 115 -19 55
-7 118 -24 200 -56 66 -26 152 -57 190 -68 39 -12 86 -32 105 -44 19 -12 65
-37 102 -56 149 -77 324 -232 370 -326 21 -42 23 -62 26 -238 l4 -193 -1535 0
-1534 0 -6 63 c-4 34 -4 118 -2 187 3 69 5 130 5 136 0 40 180 255 251 299 88
55 344 177 429 205 30 10 80 28 110 39 30 12 109 30 175 41 66 12 158 28 205
37 151 27 182 30 366 32 113 0 219 -4 285 -14z"/>
</g>
</svg>
